<?xml version="1.0" encoding="utf-8"?>
<svg xmlns="http://www.w3.org/2000/svg" fill="none" height="160" viewBox="0 0 160 160" width="160">
<path d="M28.0282 33.19C47.8938 16.6188 76.2128 31.3355 82.5529 78.0682C82.5529 57.2981 96.9237 13.3385 126.511 29.1102C165.397 49.8386 117.635 111.82 76.2128 140.749C50.0071 93.2749 0.639019 56.0371 28.0282 33.19Z" fill="#FF4B00"/>
<mask height="116" id="mask0_765_21419" maskUnits="userSpaceOnUse" style="mask-type:alpha" width="121" x="20" y="25">
<path d="M28.0282 33.19C47.8938 16.6188 76.2128 31.3355 82.5529 78.0682C82.5529 57.2981 96.9237 13.3385 126.511 29.1102C165.397 49.8386 117.635 111.82 76.2128 140.749C50.0071 93.2749 0.639019 56.0371 28.0282 33.19Z" fill="#FF4B00"/>
</mask>
<g mask="url(#mask0_765_21419)">
<path clip-rule="evenodd" d="M94.2805 43.5999C96.4123 39.6734 97.6874 35.1898 97.6874 31.516C97.6874 22.9351 90.7312 19 82.1504 19C73.5695 19 66.6133 22.9351 66.6133 31.516C66.6133 35.1898 67.8884 39.6734 70.0202 43.5999L45.0312 43.5999L45.0312 71.4153C41.0046 69.1402 36.3251 67.7695 32.516 67.7695C23.9351 67.7695 20 74.7257 20 83.3065C20 91.8874 23.9351 98.8436 32.516 98.8436C36.3251 98.8436 41.0046 97.4729 45.0312 95.1978L45.0312 122.148H123.58V94.6914C119.372 97.268 114.287 98.8438 110.203 98.8438C101.623 98.8438 97.6875 91.8876 97.6875 83.3067C97.6875 74.7258 101.623 67.7696 110.203 67.7696C114.287 67.7696 119.372 69.3453 123.58 71.9219V43.5999L94.2805 43.5999Z" fill="#D2B6DE" fill-rule="evenodd"/>
</g>
<mask fill="white" id="path-4-inside-1_765_21419">
<path clip-rule="evenodd" d="M94.2805 43.5999C96.4123 39.6734 97.6874 35.1898 97.6874 31.516C97.6874 22.9351 90.7312 19 82.1504 19C73.5695 19 66.6133 22.9351 66.6133 31.516C66.6133 35.1898 67.8884 39.6734 70.0202 43.5999L45.0312 43.5999L45.0312 71.4153C41.0046 69.1402 36.3251 67.7695 32.516 67.7695C23.9351 67.7695 20 74.7257 20 83.3065C20 91.8874 23.9351 98.8436 32.516 98.8436C36.3251 98.8436 41.0046 97.4729 45.0312 95.1978L45.0312 122.148H123.58V94.6914C119.372 97.268 114.287 98.8438 110.203 98.8438C101.623 98.8438 97.6875 91.8876 97.6875 83.3067C97.6875 74.7258 101.623 67.7696 110.203 67.7696C114.287 67.7696 119.372 69.3453 123.58 71.9219V43.5999L94.2805 43.5999Z" fill-rule="evenodd"/>
</mask>
<path d="M97.6874 31.516L96.6874 31.516V31.516H97.6874ZM94.2805 43.5999L93.4017 43.1228L92.5997 44.5999L94.2805 44.5999L94.2805 43.5999ZM66.6133 31.516L65.6133 31.516V31.516H66.6133ZM70.0202 43.5999L70.0202 44.5999L71.701 44.5999L70.899 43.1228L70.0202 43.5999ZM45.0312 43.5999L45.0312 42.5999L44.0312 42.5999L44.0312 43.5999L45.0312 43.5999ZM45.0312 71.4153L44.5393 72.2859L46.0312 73.1289L46.0312 71.4153L45.0312 71.4153ZM45.0312 95.1978L46.0312 95.1978L46.0312 93.4842L44.5393 94.3272L45.0312 95.1978ZM45.0312 122.148L44.0312 122.148L44.0312 123.148H45.0312V122.148ZM123.58 122.148V123.148H124.58V122.148H123.58ZM123.58 94.6914H124.58V92.9065L123.058 93.8386L123.58 94.6914ZM123.58 71.9219L123.058 72.7747L124.58 73.7069V71.9219H123.58ZM123.58 43.5999H124.58V42.5999L123.58 42.5999L123.58 43.5999ZM96.6874 31.516C96.6874 34.9883 95.4724 39.3087 93.4017 43.1228L95.1594 44.077C97.3522 40.0381 98.6874 35.3913 98.6874 31.516H96.6874ZM82.1504 20C86.3064 20 89.9597 20.9555 92.5464 22.8473C95.0924 24.7094 96.6874 27.5343 96.6874 31.516L98.6874 31.516C98.6874 26.9168 96.8044 23.4837 93.7271 21.233C90.6904 19.0121 86.5752 18 82.1504 18V20ZM67.6133 31.516C67.6133 27.5343 69.2083 24.7094 71.7543 22.8473C74.341 20.9555 77.9943 20 82.1504 20V18C77.7255 18 73.6103 19.0121 70.5736 21.233C67.4963 23.4837 65.6133 26.9168 65.6133 31.516L67.6133 31.516ZM70.899 43.1228C68.8283 39.3087 67.6133 34.9883 67.6133 31.516H65.6133C65.6133 35.3913 66.9485 40.0381 69.1413 44.077L70.899 43.1228ZM45.0312 44.5999L70.0202 44.5999L70.0202 42.5999L45.0312 42.5999L45.0312 44.5999ZM46.0312 71.4153L46.0312 43.5999L44.0312 43.5999L44.0312 71.4153L46.0312 71.4153ZM32.516 68.7695C36.1177 68.7695 40.6291 70.0766 44.5393 72.2859L45.5232 70.5446C41.3801 68.2038 36.5324 66.7695 32.516 66.7695V68.7695ZM21 83.3065C21 79.1505 21.9555 75.4972 23.8473 72.9105C25.7094 70.3645 28.5343 68.7695 32.516 68.7695V66.7695C27.9168 66.7695 24.4837 68.6525 22.233 71.7298C20.0121 74.7665 19 78.8817 19 83.3065H21ZM32.516 97.8436C28.5343 97.8436 25.7094 96.2486 23.8473 93.7026C21.9555 91.1159 21 87.4626 21 83.3065H19C19 87.7314 20.0121 91.8466 22.233 94.8832C24.4837 97.9606 27.9168 99.8436 32.516 99.8436V97.8436ZM44.5393 94.3272C40.6291 96.5365 36.1177 97.8436 32.516 97.8436V99.8436C36.5324 99.8436 41.3801 98.4093 45.5232 96.0684L44.5393 94.3272ZM46.0312 122.148L46.0312 95.1978L44.0312 95.1978L44.0312 122.148L46.0312 122.148ZM123.58 121.148H45.0312V123.148H123.58V121.148ZM122.58 94.6914V122.148H124.58V94.6914H122.58ZM110.203 99.8438C114.506 99.8438 119.769 98.1973 124.102 95.5442L123.058 93.8386C118.975 96.3388 114.069 97.8438 110.203 97.8438V99.8438ZM96.6875 83.3067C96.6875 87.7315 97.6996 91.8467 99.9205 94.8834C102.171 97.9607 105.604 99.8438 110.203 99.8438V97.8438C106.222 97.8438 103.397 96.2487 101.535 93.7027C99.643 91.116 98.6875 87.4627 98.6875 83.3067H96.6875ZM110.203 66.7696C105.604 66.7696 102.171 68.6527 99.9205 71.73C97.6996 74.7666 96.6875 78.8818 96.6875 83.3067H98.6875C98.6875 79.1506 99.643 75.4973 101.535 72.9106C103.397 70.3646 106.222 68.7696 110.203 68.7696V66.7696ZM124.102 71.0691C119.769 68.416 114.506 66.7696 110.203 66.7696V68.7696C114.069 68.7696 118.975 70.2746 123.058 72.7747L124.102 71.0691ZM122.58 43.5999V71.9219H124.58V43.5999H122.58ZM94.2805 44.5999L123.58 44.5999L123.58 42.5999L94.2805 42.5999L94.2805 44.5999Z" fill="black" mask="url(#path-4-inside-1_765_21419)"/>
</svg>