<?xml version="1.0" encoding="utf-8"?>
<svg xmlns="http://www.w3.org/2000/svg" fill="none" height="160" viewBox="0 0 160 160" width="160">
<g clip-path="url(#clip0_765_21440)">
<path d="M14.6805 75.9407C15.7832 45.7509 58.8951 36.8987 81.3007 36.4071C103.706 35.9155 151.443 37.7692 155.293 72.1308C160.001 114.149 75.6984 132.88 38.0054 107.672L7.17357 124.927L21.9283 94.0929C17.3729 89.0063 14.4245 82.951 14.6805 75.9407Z" fill="#00F6FF"/>
<mask height="89" id="mask0_765_21440" maskUnits="userSpaceOnUse" style="mask-type:alpha" width="149" x="7" y="36">
<path d="M14.6805 75.9407C15.7832 45.7509 58.8951 36.8987 81.3007 36.4071C103.706 35.9155 151.443 37.7692 155.293 72.1308C160.001 114.149 75.6984 132.88 38.0054 107.672L7.17357 124.927L21.9283 94.0929C17.3729 89.0063 14.4245 82.951 14.6805 75.9407Z" fill="#00F6FF"/>
</mask>
<g mask="url(#mask0_765_21440)">
<path clip-rule="evenodd" d="M67.3284 25.915H94.2787V39.4404C95.9983 40.0082 97.6683 40.685 99.2806 41.4626L108.808 31.935L127.865 50.9918L118.477 60.3801C119.305 62.035 120.026 63.7528 120.632 65.5244H133.887V92.4747H120.632C120.026 94.2455 119.305 95.9625 118.477 97.6167L127.867 107.007L108.811 126.064L99.282 116.535C97.6693 117.313 95.9988 117.99 94.2787 118.558V132.083H67.3284V118.28C65.7001 117.705 64.1184 117.031 62.5902 116.266L52.7932 126.063L33.7365 107.007L43.6728 97.0704C42.9566 95.5854 42.3258 94.0513 41.787 92.4747H27.7192L27.7192 65.5244H41.7867C42.3254 63.9479 42.9561 62.414 43.6722 60.929L33.7351 50.9919L52.7918 31.9351L62.5891 41.7324C64.1176 40.9672 65.6997 40.2932 67.3284 39.7177V25.915ZM80.8443 96.5367C91.1351 96.5367 99.4774 88.1944 99.4774 77.9036C99.4774 67.6128 91.1351 59.2705 80.8443 59.2705C70.5535 59.2705 62.2112 67.6128 62.2112 77.9036C62.2112 88.1944 70.5535 96.5367 80.8443 96.5367Z" fill="#98E891" fill-rule="evenodd"/>
</g>
<path d="M94.2787 25.915H94.7787V25.415H94.2787V25.915ZM67.3284 25.915V25.415H66.8284V25.915H67.3284ZM94.2787 39.4404H93.7787V39.8018L94.1219 39.9152L94.2787 39.4404ZM99.2806 41.4626L99.0634 41.913L99.3831 42.0672L99.6341 41.8162L99.2806 41.4626ZM108.808 31.935L109.162 31.5815L108.808 31.2279L108.455 31.5815L108.808 31.935ZM127.865 50.9918L128.218 51.3453L128.572 50.9918L128.218 50.6382L127.865 50.9918ZM118.477 60.3801L118.123 60.0265L117.868 60.2815L118.029 60.6039L118.477 60.3801ZM120.632 65.5244L120.159 65.6861L120.274 66.0244H120.632V65.5244ZM133.887 65.5244H134.387V65.0244H133.887V65.5244ZM133.887 92.4747V92.9747H134.387V92.4747H133.887ZM120.632 92.4747V91.9747H120.274L120.158 92.313L120.632 92.4747ZM118.477 97.6167L118.03 97.3929L117.869 97.7153L118.124 97.9703L118.477 97.6167ZM127.867 107.007L128.221 107.36L128.575 107.007L128.221 106.653L127.867 107.007ZM108.811 126.064L108.457 126.417L108.811 126.771L109.164 126.417L108.811 126.064ZM99.282 116.535L99.6356 116.181L99.3845 115.93L99.0648 116.085L99.282 116.535ZM94.2787 118.558L94.1219 118.083L93.7787 118.196V118.558H94.2787ZM94.2787 132.083V132.583H94.7787V132.083H94.2787ZM67.3284 132.083H66.8284V132.583H67.3284V132.083ZM67.3284 118.28H67.8284V117.927L67.4949 117.809L67.3284 118.28ZM62.5903 116.266L62.8141 115.819L62.4917 115.658L62.2367 115.913L62.5903 116.266ZM52.7932 126.063L52.4396 126.417L52.7932 126.771L53.1468 126.417L52.7932 126.063ZM33.7365 107.007L33.3829 106.653L33.0294 107.007L33.3829 107.36L33.7365 107.007ZM43.6728 97.0704L44.0264 97.4239L44.2774 97.1729L44.1232 96.8532L43.6728 97.0704ZM41.787 92.4747L42.2602 92.313L42.1446 91.9747H41.787V92.4747ZM27.7192 92.4747L27.2192 92.4747L27.2192 92.9747H27.7192V92.4747ZM27.7192 65.5244V65.0244H27.2192L27.2192 65.5244L27.7192 65.5244ZM41.7867 65.5244V66.0244H42.1443L42.2599 65.6861L41.7867 65.5244ZM43.6722 60.929L44.1226 61.1462L44.2768 60.8265L44.0258 60.5755L43.6722 60.929ZM33.7351 50.9919L33.3815 50.6383L33.028 50.9919L33.3815 51.3454L33.7351 50.9919ZM52.7918 31.9351L53.1454 31.5816L52.7918 31.228L52.4383 31.5816L52.7918 31.9351ZM62.5891 41.7324L62.2355 42.0859L62.4905 42.3409L62.8129 42.1795L62.5891 41.7324ZM67.3284 39.7177L67.4949 40.1892L67.8284 40.0713V39.7177H67.3284ZM94.2787 25.415H67.3284V26.415H94.2787V25.415ZM94.7787 39.4404V25.915H93.7787V39.4404H94.7787ZM99.4978 41.0123C97.8661 40.2253 96.1759 39.5403 94.4354 38.9656L94.1219 39.9152C95.8207 40.4761 97.4705 41.1447 99.0634 41.913L99.4978 41.0123ZM99.6341 41.8162L109.162 32.2886L108.455 31.5815L98.927 41.1091L99.6341 41.8162ZM108.455 32.2886L127.511 51.3453L128.218 50.6382L109.162 31.5815L108.455 32.2886ZM127.511 50.6382L118.123 60.0265L118.83 60.7336L128.218 51.3453L127.511 50.6382ZM121.105 65.3627C120.492 63.5697 119.762 61.8311 118.924 60.1563L118.029 60.6039C118.848 62.2389 119.561 63.9359 120.159 65.6861L121.105 65.3627ZM133.887 65.0244H120.632V66.0244H133.887V65.0244ZM134.387 92.4747V65.5244H133.387V92.4747H134.387ZM120.632 92.9747H133.887V91.9747H120.632V92.9747ZM118.924 97.8405C119.762 96.1664 120.492 94.4286 121.105 92.6364L120.158 92.313C119.561 94.0624 118.848 95.7587 118.03 97.3929L118.924 97.8405ZM128.221 106.653L118.831 97.2632L118.124 97.9703L127.514 107.36L128.221 106.653ZM109.164 126.417L128.221 107.36L127.514 106.653L108.457 125.71L109.164 126.417ZM98.9285 116.888L108.457 126.417L109.164 125.71L99.6356 116.181L98.9285 116.888ZM94.4354 119.033C96.1764 118.458 97.8671 117.773 99.4992 116.985L99.0648 116.085C97.4715 116.853 95.8212 117.522 94.1219 118.083L94.4354 119.033ZM94.7787 132.083V118.558H93.7787V132.083H94.7787ZM67.3284 132.583H94.2787V131.583H67.3284V132.583ZM66.8284 118.28V132.083H67.8284V118.28H66.8284ZM62.3664 116.714C63.913 117.488 65.5139 118.17 67.1618 118.752L67.4949 117.809C65.8864 117.241 64.3238 116.575 62.8141 115.819L62.3664 116.714ZM53.1468 126.417L62.9438 116.62L62.2367 115.913L52.4396 125.71L53.1468 126.417ZM33.3829 107.36L52.4396 126.417L53.1468 125.71L34.09 106.653L33.3829 107.36ZM43.3192 96.7168L33.3829 106.653L34.09 107.36L44.0264 97.4239L43.3192 96.7168ZM41.3139 92.6364C41.8592 94.2321 42.4976 95.7847 43.2224 97.2876L44.1232 96.8532C43.4155 95.3861 42.7925 93.8706 42.2602 92.313L41.3139 92.6364ZM27.7192 92.9747H41.787V91.9747H27.7192V92.9747ZM27.2192 65.5244L27.2192 92.4747L28.2192 92.4747L28.2192 65.5244L27.2192 65.5244ZM41.7867 65.0244H27.7192V66.0244H41.7867V65.0244ZM43.2219 60.7118C42.4971 62.2147 41.8588 63.7671 41.3136 65.3627L42.2599 65.6861C42.7921 64.1286 43.4151 62.6133 44.1226 61.1462L43.2219 60.7118ZM33.3815 51.3454L43.3187 61.2826L44.0258 60.5755L34.0886 50.6383L33.3815 51.3454ZM52.4383 31.5816L33.3815 50.6383L34.0886 51.3454L53.1454 32.2887L52.4383 31.5816ZM62.9426 41.3788L53.1454 31.5816L52.4383 32.2887L62.2355 42.0859L62.9426 41.3788ZM67.1618 39.2463C65.5134 39.8288 63.9122 40.5109 62.3652 41.2853L62.8129 42.1795C64.323 41.4235 65.886 40.7577 67.4949 40.1892L67.1618 39.2463ZM66.8284 25.915V39.7177H67.8284V25.915H66.8284ZM98.9774 77.9036C98.9774 87.9183 90.8589 96.0367 80.8443 96.0367V97.0367C91.4112 97.0367 99.9774 88.4705 99.9774 77.9036H98.9774ZM80.8443 59.7705C90.8589 59.7705 98.9774 67.889 98.9774 77.9036H99.9774C99.9774 67.3367 91.4112 58.7705 80.8443 58.7705V59.7705ZM62.7112 77.9036C62.7112 67.889 70.8296 59.7705 80.8443 59.7705V58.7705C70.2773 58.7705 61.7112 67.3367 61.7112 77.9036H62.7112ZM80.8443 96.0367C70.8296 96.0367 62.7112 87.9183 62.7112 77.9036H61.7112C61.7112 88.4705 70.2773 97.0367 80.8443 97.0367V96.0367Z" fill="black"/>
</g>
<defs>
<clipPath id="clip0_765_21440">
<rect fill="white" height="160" width="160"/>
</clipPath>
</defs>
</svg>