<?xml version="1.0" encoding="utf-8"?>
<svg xmlns="http://www.w3.org/2000/svg" fill="none" height="160" viewBox="0 0 160 160" width="160">
<g clip-path="url(#clip0_765_21474)">
<path d="M11.1416 89.3795C10.6647 85.0358 63.5356 62.0674 88.4907 51.815C70.6414 52.4574 49.3474 49.0838 47.6651 44.1669C46.6958 41.3339 53.1436 25.7154 57.6332 18.2925C61.1168 12.5328 131.01 35.2931 133.494 38.8271C136.831 43.5748 131.239 97.7137 130.71 100.513C130.181 103.313 104.669 101.807 100.124 99.0581C96.4875 96.8587 93.8482 82.2643 99.0785 68.2705C90.7127 76.3217 43.9649 129.025 41.2689 129.89C37.8988 130.971 11.7377 94.8093 11.1416 89.3795Z" fill="#FA0CF7"/>
<path clip-rule="evenodd" d="M119.758 101.978C112.064 101.782 102.705 100.621 100.121 99.0581C96.4851 96.8588 93.8457 82.2644 99.0761 68.2706C95.5495 71.6646 85.2022 82.9935 74.2095 95.029C66.7299 103.218 58.9515 111.734 52.8196 118.301C43.3887 111.881 36.5904 102.194 33.7698 91.0485C32.5583 86.2614 32.1202 81.3617 32.43 76.5263C49.8565 68.111 73.9256 57.7979 88.4883 51.8151C71.2591 52.4352 50.8205 49.3134 47.9081 44.6737C53.4263 39.7491 60.0892 36.1719 67.384 34.3257L67.403 34.3209C77.4077 31.795 87.9727 32.6854 97.4345 36.8519C106.896 41.0184 114.718 48.2243 119.667 57.3351C124.616 66.4459 126.412 76.9441 124.772 87.1768C123.936 92.3964 122.23 97.3956 119.758 101.978Z" fill="#E5BDBE" fill-rule="evenodd"/>
<path d="M67.066 34.5005C77.0707 31.9746 87.6357 32.865 97.0975 37.0315C106.559 41.198 114.381 48.4039 119.33 57.5147C124.279 66.6255 126.075 77.1237 124.435 87.3564C122.795 97.5891 117.813 106.975 110.272 114.036L115.445 129.536L99.2063 121.723C96.2591 123.179 93.1679 124.322 89.9829 125.132C78.0264 128.158 65.3513 126.286 54.7462 119.928C44.141 113.57 36.4744 103.246 33.4329 91.2281C30.3914 79.2102 32.2242 66.4825 38.5281 55.8449C44.832 45.2074 55.0906 37.5313 67.0471 34.5053L67.066 34.5005Z" stroke="black" stroke-miterlimit="10"/>
</g>
<defs>
<clipPath id="clip0_765_21474">
<rect fill="white" height="160" width="160"/>
</clipPath>
</defs>
</svg>