<?xml version="1.0" encoding="utf-8"?>
<svg xmlns="http://www.w3.org/2000/svg" fill="none" height="100" viewBox="0 0 180 100" width="180">
<rect fill="white" height="100" width="180"/>
<g clip-path="url(#clip0_1937_4094)">
<mask height="29" id="mask0_1937_4094" maskUnits="userSpaceOnUse" style="mask-type:luminance" width="175" x="2" y="38">
<path d="M2 38.75H176.711V66.0227H2V38.75Z" fill="white"/>
</mask>
<g mask="url(#mask0_1937_4094)">
<path d="M5.7625 45.008V59.7886H2V39.1773H5.65455L12.0239 47.3148L18.5523 39.2045H22.0727V59.7886H18.3102V44.9284L12.1568 52.4273H11.7205L5.7625 45.008ZM36.2739 59.7886H32.2966V44.3386H35.6557L36.0045 47.5625C36.9727 45.3591 38.9602 43.908 41.917 43.908C46.1079 43.908 48.4193 46.5682 48.4193 50.7068V59.7886H44.442V51.675C44.442 48.9136 43.4739 47.2136 40.6261 47.2136C37.6432 47.2136 36.267 49.0682 36.267 52.2102L36.2727 59.7875L36.2739 59.7886ZM64.3079 56.6727C63.342 58.8239 61.3261 60.1602 58.2614 60.1602C53.9091 60.1602 50.792 57.5807 50.792 52.1534V51.9386C50.792 46.7784 53.8273 43.9307 58.3954 43.9307C61.1102 43.9307 63.0716 45.0318 64.1454 46.9398V39.2045H67.9886V59.7886H64.6523L64.3068 56.6716L64.3079 56.6727ZM64.2773 52.1375V51.9761C64.2773 48.9932 62.4773 47.1386 59.5477 47.1386C56.3773 47.1386 54.5841 48.9386 54.5841 51.9761V52.1648C54.5841 55.3352 56.4841 56.867 59.4398 56.867C62.5307 56.8614 64.2773 55.1148 64.2773 52.1375ZM76.7829 59.7886L69.7966 44.3386H74.0102L78.6602 55.4375L83.4704 44.3386H87.742L80.4091 59.7886H76.7829ZM106.97 59.7898V39.2045H110.922V59.7886L106.97 59.7898ZM114.031 59.7898V39.2045H117.982V59.7886L114.031 59.7898ZM129.115 60.2466C123.124 60.2466 120.464 57.1295 120.464 52.4V52.1591C120.464 47.3761 123.687 43.9091 129.303 43.9091C135.053 43.9091 137.901 47.4295 137.901 51.8636V53.5023H124.285C124.661 55.8398 126.3 57.0773 129.335 57.0773C131.566 57.0773 132.802 56.4318 133.42 55.2227H137.72C136.483 58.608 133.556 60.2466 129.115 60.2466ZM124.333 50.5455H134.011C133.662 48.208 132.184 46.9727 129.39 46.9727C126.515 46.9727 124.823 48.2886 124.339 50.5455H124.333ZM139.035 66.0227V62.6114H140.997C143.308 62.6114 144.006 62.0205 145.027 60.0318L145.403 59.225L138.202 44.3386H142.448L147.205 54.6841L147.366 55.3011L147.552 54.7102L152.257 44.3386H156.447L148.628 60.7102C146.372 65.3602 145.377 66.0295 140.889 66.0295L139.035 66.0227ZM27.2432 44.5818C26.5477 44.6 25.8534 44.5148 25.183 44.3284V59.7886H29.2136V44.3159C28.5745 44.5058 27.9098 44.5955 27.2432 44.5818ZM27.2648 42.9295C28.6875 42.9295 29.4557 42.4091 29.4557 40.8511C29.4557 39.3602 28.7102 38.75 27.2648 38.75H27.2716C25.8182 38.75 25.0807 39.3602 25.0807 40.8511C25.0807 42.4091 25.8477 42.9295 27.2716 42.9295H27.2648ZM156.268 39.1534L158.367 39.4023L161.357 39.9716C162.29 40.2011 163.273 40.4477 164.118 40.917C165.591 41.7341 165.891 43.442 165.891 44.9989V48.1625C159.172 44.7273 156.268 39.1534 156.268 39.1534ZM176.714 39.1534L174.614 39.4011L171.625 39.9705C170.692 40.2 169.709 40.4466 168.864 40.9159C167.389 41.733 167.091 43.4409 167.091 44.9977V48.1614C173.81 44.7261 176.714 39.1534 176.714 39.1534ZM100.508 56.6591C99.3807 58.8386 96.9886 60.4193 93.3068 60.4193C89.5989 60.4193 87.6398 58.8614 87.6398 56.175C87.6398 54.4318 88.392 53.1114 89.8193 52.3318C91.2432 51.5273 92.5 51.3273 96.2261 50.8784L100.327 50.4989V49.108C100.327 47.9261 99.3875 47.0386 96.6193 47.0386C93.5284 47.0386 92.3193 48.0557 92.1579 49.9443H88.0954C88.4443 46.208 91.3454 44.0852 96.3443 44.0852C101.745 44.0852 104.109 45.8852 104.109 49.8625V59.9659H100.912L100.509 56.6568L100.508 56.6591ZM100.311 52.9568L96.8807 53.3C94.5693 53.542 93.5489 53.7364 92.8227 54.1602C92.1511 54.5625 91.7636 55.0318 91.7636 55.7284V55.7557C91.7636 56.8852 92.9159 57.4989 94.5693 57.492C98.0091 57.4648 100.311 55.2148 100.311 52.9568Z" fill="#7A12D4"/>
</g>
</g>
<defs>
<clipPath id="clip0_1937_4094">
<rect fill="white" height="27.2727" transform="translate(2 38.75)" width="175"/>
</clipPath>
</defs>
</svg>