<svg xmlns="http://www.w3.org/2000/svg" fill="none" viewBox="0 0 213 57">
  <rect width="213" height="57" fill="#F4DAFF" rx="28.5"/>
  <path fill="#000" d="M22.412 20.743a1.228 1.228 0 0 1-1.229-1.22 1.23 1.23 0 0 1 1.229-1.228 1.23 1.23 0 0 1 1.228 1.229c0 .668-.55 1.22-1.228 1.22Zm-2.204 14.923c-.145 0-.316-.009-.434-.009v-1.608h.271c1.003 0 1.391-.343 1.391-1.328V22.496h1.951V32.73c0 2.015-1.047 2.936-3.18 2.936Zm9.198-3.17c-2.881 0-4.643-1.925-4.643-5.086v-.018c0-3.153 1.77-5.086 4.643-5.086 2.864 0 4.634 1.924 4.634 5.086v.018c0 3.161-1.761 5.085-4.634 5.085Zm0-1.636c1.68 0 2.638-1.282 2.638-3.45v-.018c0-2.177-.957-3.451-2.638-3.451-1.689 0-2.637 1.274-2.637 3.45v.019c0 2.177.948 3.45 2.637 3.45Zm9.542 1.635c-2.367 0-3.866-1.11-4.056-2.755v-.009h1.96l.01.01c.243.74.957 1.237 2.122 1.237 1.21 0 2.05-.551 2.05-1.355v-.018c0-.614-.46-1.03-1.598-1.292l-1.563-.361c-1.852-.425-2.71-1.265-2.71-2.701v-.01c0-1.707 1.59-2.935 3.812-2.935 2.24 0 3.677 1.12 3.848 2.719v.009h-1.87v-.018c-.19-.687-.885-1.202-1.987-1.202-1.075 0-1.852.533-1.852 1.32v.017c0 .615.452.994 1.554 1.256l1.554.352c1.888.443 2.791 1.247 2.791 2.665v.018c0 1.816-1.734 3.053-4.065 3.053Zm6.425-11.752a1.228 1.228 0 0 1-1.228-1.22 1.23 1.23 0 0 1 1.228-1.228c.669 0 1.229.551 1.229 1.229 0 .668-.56 1.22-1.229 1.22Zm-.984 11.563v-9.81h1.951v9.81h-1.951Zm7.925.19c-2.873 0-4.607-1.96-4.607-5.068v-.01c0-3.062 1.77-5.112 4.507-5.112 2.737 0 4.418 1.978 4.418 4.923v.687h-6.956c.036 1.878 1.066 2.971 2.683 2.971 1.255 0 2.005-.623 2.24-1.129l.036-.072 1.888-.009-.018.081c-.325 1.292-1.68 2.737-4.191 2.737Zm-.09-8.582c-1.338 0-2.35.912-2.521 2.601h4.986c-.153-1.752-1.138-2.601-2.466-2.601Zm13.245 10.451c-4.68 0-7.678-2.945-7.678-7.524v-.018c0-4.463 3.062-7.525 7.524-7.525 4.29 0 7.263 2.728 7.263 6.657v.018c0 2.918-1.337 4.76-3.45 4.76-1.067 0-1.87-.56-2.042-1.426l-.01-.055h-.153c-.38.922-1.165 1.419-2.222 1.419-1.879 0-3.135-1.536-3.135-3.821v-.019c0-2.186 1.265-3.703 3.108-3.703.948 0 1.752.479 2.104 1.274h.154v-1.093h1.536v5.13c0 .633.343 1.003.957 1.003 1.066 0 1.744-1.346 1.744-3.424V26c0-3.26-2.403-5.456-5.953-5.456-3.514 0-6.016 2.63-6.016 6.333v.018c0 3.785 2.475 6.215 6.332 6.215 1.138 0 2.276-.154 2.818-.398v1.256c-.776.253-1.806.397-2.881.397Zm-.48-5.104c1.148 0 1.87-.92 1.87-2.366v-.018c0-1.446-.722-2.367-1.851-2.367-1.12 0-1.78.885-1.78 2.367v.018c0 1.463.669 2.367 1.762 2.367Zm9.028 3.045v-9.81h1.96v1.508h.145c.433-1.075 1.39-1.698 2.673-1.698 1.337 0 2.286.695 2.72 1.752h.153c.497-1.057 1.626-1.752 2.99-1.752 1.978 0 3.135 1.192 3.135 3.234v6.766H85.84V26.01c0-1.356-.614-2.024-1.897-2.024-1.246 0-2.068.93-2.068 2.114v6.206h-1.951V25.81c0-1.12-.732-1.825-1.888-1.825-1.184 0-2.06 1.012-2.06 2.294v6.026h-1.96Zm18.205.162c-1.87 0-3.252-1.138-3.252-2.918v-.018c0-1.752 1.318-2.773 3.658-2.917l2.656-.154v-.867c0-1.075-.678-1.671-2.006-1.671-1.084 0-1.797.397-2.032 1.093l-.01.036H89.35l.009-.063c.235-1.608 1.78-2.683 4.01-2.683 2.467 0 3.858 1.228 3.858 3.288v6.712h-1.942v-1.391h-.154c-.578.993-1.608 1.553-2.908 1.553ZM90.92 29.47c0 .904.768 1.436 1.824 1.436 1.464 0 2.539-.957 2.539-2.222v-.84l-2.394.154c-1.355.081-1.97.569-1.97 1.454v.018Zm8.07 2.837v-9.81h1.959v1.49h.145c.479-1.048 1.418-1.68 2.845-1.68 2.195 0 3.406 1.31 3.406 3.65v6.35h-1.951v-5.89c0-1.626-.678-2.43-2.114-2.43s-2.331.985-2.331 2.566v5.754h-1.96Zm10.724 3.45a7.79 7.79 0 0 1-.786-.045v-1.544c.19.027.434.036.66.036.912 0 1.463-.389 1.752-1.382l.145-.506-3.559-9.82h2.113l2.457 7.841h.172l2.448-7.84h2.06l-3.65 10.19c-.831 2.339-1.824 3.07-3.812 3.07Zm12.198-3.26c-2.864 0-4.616-1.952-4.616-5.123v-.018c0-3.107 1.743-5.05 4.607-5.05 2.466 0 3.938 1.392 4.209 3.298v.045l-1.879.01-.009-.028c-.216-.966-1.011-1.69-2.312-1.69-1.635 0-2.62 1.302-2.62 3.415v.018c0 2.168 1.003 3.487 2.62 3.487 1.228 0 1.987-.56 2.303-1.617l.018-.045h1.879l-.018.081c-.352 1.907-1.752 3.216-4.182 3.216Zm5.513-.19V18.647h1.96v5.34h.145c.478-1.049 1.418-1.681 2.845-1.681 2.195 0 3.406 1.31 3.406 3.65v6.35h-1.952v-5.89c0-1.626-.677-2.43-2.113-2.43-1.437 0-2.331.985-2.331 2.566v5.754h-1.96Zm12.784.162c-1.869 0-3.251-1.138-3.251-2.918v-.018c0-1.752 1.318-2.773 3.658-2.917l2.656-.154v-.867c0-1.075-.678-1.671-2.006-1.671-1.084 0-1.797.397-2.032 1.093l-.009.036h-1.888l.009-.063c.235-1.608 1.779-2.683 4.011-2.683 2.466 0 3.857 1.228 3.857 3.288v6.712h-1.942v-1.391h-.154c-.578.993-1.608 1.553-2.909 1.553Zm-1.3-2.999c0 .904.768 1.436 1.824 1.436 1.464 0 2.539-.957 2.539-2.222v-.84l-2.394.154c-1.355.081-1.969.569-1.969 1.454v.018Zm11.773 2.9c-2.159 0-3.044-.759-3.044-2.647V24.04h-1.536v-1.544h1.536V20.02h1.996v2.476h2.105v1.544h-2.105v5.212c0 1.057.397 1.49 1.364 1.49.298 0 .47-.008.741-.035v1.563c-.317.054-.678.099-1.057.099Zm3.851.072c-.75 0-1.328-.578-1.328-1.31 0-.74.578-1.319 1.328-1.319.749 0 1.318.579 1.318 1.32 0 .731-.569 1.31-1.318 1.31Zm7.093.054c-2.863 0-4.616-1.95-4.616-5.121v-.019c0-3.107 1.744-5.05 4.607-5.05 2.466 0 3.939 1.392 4.21 3.298v.045l-1.879.01-.009-.028c-.217-.966-1.012-1.69-2.313-1.69-1.635 0-2.619 1.302-2.619 3.415v.018c0 2.168 1.002 3.487 2.619 3.487 1.229 0 1.988-.56 2.304-1.617l.018-.045h1.879l-.018.081c-.353 1.907-1.753 3.216-4.183 3.216Zm9.578 0c-2.881 0-4.643-1.924-4.643-5.085v-.018c0-3.153 1.771-5.086 4.643-5.086 2.864 0 4.634 1.924 4.634 5.086v.018c0 3.161-1.761 5.085-4.634 5.085Zm0-1.635c1.68 0 2.638-1.282 2.638-3.45v-.018c0-2.177-.958-3.451-2.638-3.451-1.689 0-2.637 1.274-2.637 3.45v.019c0 2.177.948 3.45 2.637 3.45Zm5.974 1.446v-9.81h1.96v1.508h.145c.433-1.075 1.391-1.698 2.673-1.698 1.337 0 2.286.695 2.72 1.752h.153c.497-1.057 1.626-1.752 2.99-1.752 1.978 0 3.135 1.192 3.135 3.234v6.766h-1.952V26.01c0-1.356-.614-2.024-1.897-2.024-1.246 0-2.068.93-2.068 2.114v6.206h-1.951V25.81c0-1.12-.732-1.825-1.888-1.825-1.184 0-2.06 1.012-2.06 2.294v6.026h-1.96Z"/>
  <path fill="#000" d="M20 35.657h172.282v1.31H20v-1.31Z"/>
  <a>
    <path fill="none" d="M0 .524h172.282v22.077H0z"/>
  </a>
</svg>
